<?xml version="1.0" encoding="iso-8859-1"?>
<!-- Generator: Adobe Illustrator 19.0.0, SVG Export Plug-In . SVG Version: 6.00 Build 0)  -->
<svg version="1.1" id="Layer_1" xmlns="http://www.w3.org/2000/svg" xmlns:xlink="http://www.w3.org/1999/xlink" x="0px" y="0px"
	 viewBox="0 0 500.04 500.04" style="enable-background:new 0 0 500.04 500.04;" xml:space="preserve">
<g>
	<g>
		<path d="M484.902,457.724H46.134v-33.292l82.468-69.896c0.508,0.04,0.996,0.152,1.516,0.152c5.852,0,11.048-2.644,14.624-6.744
			l63.744,16.836c2.864,7.212,9.88,12.34,18.1,12.34c10.752,0,19.496-8.744,19.496-19.496c0-0.632-0.128-1.228-0.188-1.844
			l64.808-58.248l16.732,22.488c-0.548,1.792-0.928,3.66-0.928,5.628c0,10.756,8.752,19.504,19.504,19.504
			c2.804,0,5.456-0.62,7.868-1.692l104.236,42.384c2.152,8.424,9.744,14.704,18.828,14.704c10.752,0,19.504-8.752,19.504-19.504
			c0-10.752-8.752-19.496-19.504-19.496c-3.72,0-7.168,1.1-10.124,2.916l-101.56-41.292c-1.236-9.572-9.344-17.02-19.248-17.02
			c-0.04,0-0.076,0.012-0.112,0.012l-17.944-24.124l14.08-12.656c1.284,0.264,2.616,0.416,3.98,0.416
			c10.752,0,19.496-8.752,19.496-19.504c0-2.448-0.504-4.772-1.332-6.936L466.21,84.424c10.148-0.668,18.228-9.06,18.228-19.376
			c0-10.752-8.748-19.5-19.496-19.5c-10.752,0-19.504,8.748-19.504,19.5c0,2.448,0.504,4.768,1.332,6.932L344.73,230.928
			c-10.14,0.676-18.22,9.06-18.22,19.368c0,0.632,0.128,1.232,0.188,1.848l-12.58,11.304l-56.876-76.456
			c0.612-1.888,1.028-3.86,1.028-5.948c0-10.752-8.748-19.5-19.5-19.5c-9.904,0-18.012,7.448-19.248,17.024l-46.828,26.824
			c-2.308-0.968-4.836-1.508-7.488-1.508c-5.46,0-10.384,2.268-13.928,5.9L46.13,197.892V11.54C46.13,5.168,40.962,0,34.59,0
			c-6.38,0-11.54,5.168-11.54,11.54v23.044h-7.932c-6.372,0-11.54,5.172-11.54,11.544c0,6.376,5.168,11.54,11.54,11.54h7.932v19.236
			h-7.932c-6.372,0-11.54,5.168-11.54,11.54c0,6.38,5.168,11.54,11.54,11.54h7.932v19.236h-7.932c-6.372,0-11.54,5.16-11.54,11.54
			c0,6.372,5.168,11.544,11.54,11.544h7.932v19.232h-7.932c-6.372,0-11.54,5.172-11.54,11.544c0,6.38,5.168,11.54,11.54,11.54h7.932
			v19.236h-7.932c-6.372,0-11.54,5.168-11.54,11.54c0,6.38,5.168,11.54,11.54,11.54h7.932v19.236h-7.932
			c-6.372,0-11.54,5.164-11.54,11.544c0,6.372,5.168,11.54,11.54,11.54h7.932v19.236h-7.932c-6.372,0-11.54,5.16-11.54,11.54
			c0,6.372,5.168,11.54,11.54,11.54h7.932v19.236h-7.932c-6.372,0-11.54,5.168-11.54,11.54c0,6.38,5.168,11.544,11.54,11.544h7.932
			v19.232h-7.932c-6.372,0-11.54,5.172-11.54,11.544c0,6.38,5.168,11.54,11.54,11.54h7.932v19.236h-7.932
			c-6.372,0-11.54,5.16-11.54,11.54c0,6.372,5.168,11.54,11.54,11.54h7.932v19.236h-7.932c-6.372,0-11.54,5.164-11.54,11.544
			c0,6.372,5.168,11.54,11.54,11.54h7.932v7.656c0,6.372,5.164,11.54,11.54,11.54c6.372,0,11.54-5.168,11.54-11.54v-7.656h19.236
			v7.656c0,6.372,5.16,11.54,11.54,11.54c6.372,0,11.54-5.168,11.54-11.54v-7.656h19.236v7.656c0,6.372,5.16,11.54,11.54,11.54
			c6.372,0,11.54-5.168,11.54-11.54v-7.656h19.232v7.656c0,6.372,5.164,11.54,11.54,11.54c6.372,0,11.54-5.168,11.54-11.54v-7.656
			h19.236v7.656c0,6.372,5.164,11.54,11.54,11.54c6.372,0,11.54-5.168,11.54-11.54v-7.656h19.236v7.656
			c0,6.372,5.164,11.54,11.54,11.54c6.372,0,11.544-5.168,11.544-11.54v-7.656h19.232v7.656c0,6.372,5.164,11.54,11.544,11.54
			c6.372,0,11.54-5.168,11.54-11.54v-7.656h19.236v7.656c0,6.372,5.16,11.54,11.54,11.54c6.372,0,11.54-5.168,11.54-11.54v-7.656
			h19.236v7.656c0,6.372,5.16,11.54,11.54,11.54c6.372,0,11.544-5.168,11.544-11.54v-7.656h19.236v7.656
			c0,6.372,5.16,11.54,11.54,11.54c6.372,0,11.54-5.168,11.54-11.54v-7.656h19.236v7.656c0,6.372,5.16,11.54,11.54,11.54
			c6.372,0,11.544-5.168,11.544-11.54v-7.656h15.624c6.372,0,11.54-5.168,11.54-11.54
			C496.438,462.888,491.27,457.724,484.902,457.724z M46.134,221.116l102.032,11.544c3.308,6.06,9.664,10.228,17.044,10.228
			c10.128,0,18.38-7.784,19.32-17.676l46.192-26.46c2.392,1.092,5.024,1.732,7.812,1.764l58.336,78.42l-66.312,59.596
			c-1.284-0.264-2.612-0.412-3.972-0.412c-4.612,0-8.796,1.676-12.14,4.364l-68.048-17.968c-3.488-5.304-9.472-8.828-16.28-8.828
			c-10.752,0-19.504,8.752-19.504,19.504c0,1.368,0.148,2.7,0.416,3.988l-64.896,54.996V221.116z"/>
	</g>
</g>
<g>
</g>
<g>
</g>
<g>
</g>
<g>
</g>
<g>
</g>
<g>
</g>
<g>
</g>
<g>
</g>
<g>
</g>
<g>
</g>
<g>
</g>
<g>
</g>
<g>
</g>
<g>
</g>
<g>
</g>
</svg>
